<svg width="12" height="13" viewBox="0 0 12 13" fill="none" xmlns="http://www.w3.org/2000/svg">
<rect width="12" height="13" fill="#FFFBFB"/>
<g clip-path="url(#clip0_0_1)">
<rect width="1366" height="786" transform="translate(-783 -415)" fill="white"/>
<g style="mix-blend-mode:multiply" filter="url(#filter0_d_0_1)">
<path d="M-783 -414H583V372H-783V-414Z" fill="#434343"/>
</g>
<path d="M-399 -295C-399 -299.418 -395.418 -303 -391 -303H205.087C209.505 -303 213.087 -299.418 213.087 -295V301.087C213.087 305.505 209.505 309.087 205.087 309.087H-391C-395.418 309.087 -399 305.505 -399 301.087V-295Z" fill="white"/>
<rect x="-215" y="-15" width="244.708" height="41.1382" rx="8" fill="#F6F6F6"/>
<path d="M4.74169 10.9946L1 11.3719L1.56206 7.81493L6.33953 2.63598L7.60817 1.36734C8.09797 0.877552 8.89287 0.877552 9.39069 1.36734L10.7637 2.74037C11.2696 3.24622 11.2696 4.06521 10.7637 4.57106L4.74169 10.9946Z" stroke="#B3B3B3" stroke-width="1.5" stroke-linecap="round" stroke-linejoin="round"/>
<path d="M9.35043 5.55865L6.57227 2.77246" stroke="#B3B3B3" stroke-width="1.5" stroke-linecap="round" stroke-linejoin="round"/>
</g>
<defs>
<filter id="filter0_d_0_1" x="-787" y="-414" width="1374" height="794" filterUnits="userSpaceOnUse" color-interpolation-filters="sRGB">
<feFlood flood-opacity="0" result="BackgroundImageFix"/>
<feColorMatrix in="SourceAlpha" type="matrix" values="0 0 0 0 0 0 0 0 0 0 0 0 0 0 0 0 0 0 127 0" result="hardAlpha"/>
<feOffset dy="4"/>
<feGaussianBlur stdDeviation="2"/>
<feComposite in2="hardAlpha" operator="out"/>
<feColorMatrix type="matrix" values="0 0 0 0 0 0 0 0 0 0 0 0 0 0 0 0 0 0 0.25 0"/>
<feBlend mode="normal" in2="BackgroundImageFix" result="effect1_dropShadow_0_1"/>
<feBlend mode="normal" in="SourceGraphic" in2="effect1_dropShadow_0_1" result="shape"/>
</filter>
<clipPath id="clip0_0_1">
<rect width="1366" height="786" fill="white" transform="translate(-783 -415)"/>
</clipPath>
</defs>
</svg>
